# xmcd CD database file
#
# Track frame offsets:
#	150
#	12107
#	29679
#	45685
#	65632
#	78291
#	92030
#	108522
#	123395
#	138214
#	151818
#	169039
#	183426
#	196571
#	211687
#	224778
#	240623
#	255874
#	267373
#	283595
#
# Disc length: 3973 seconds
#
# Revision: 4
# Processed by: cddbd v1.5.2PL0 Copyright (c) Steve Scherf et al.
# Submitted via: CDex 1.40Release
#
DISCID=120f8314
DTITLE=Tibalgi and Miltinho - Os Grandes Sucessos(Dimas)
DYEAR=1965
DGENRE=Country
TTITLE0=Canarinho Do Peito Amarelo-Tibalgi and Miltinho
TTITLE1=Orgulhosa E Bonita-Tibalgi and Miltinho
TTITLE2=Pombimha Branca-Tibalgi and Miltinho
TTITLE3=Arrependimento-Tibalgi and Miltinho
TTITLE4=Pé De Cedro-Tibalgi and Miltinho
TTITLE5=Bonequinha Da Noite-Tibalgi and Miltinho
TTITLE6=Ergam As Taças-Tibalgi and Miltinho
TTITLE7=Saudade-Tibalgi and Miltinho
TTITLE8=Taça Vazia-Tibalgi and Miltinho
TTITLE9=Pecado Louro-Tibalgi and Miltinho
TTITLE10=Fala Coxim-Tibalgi and Miltinho
TTITLE11=A Saudade É Meu Castigo-Tibalgi and Miltinho
TTITLE12=Sonho De Amor-Tibalgi and Miltinho
TTITLE13=Juramento De Amor-Tibalgi and Miltinho
TTITLE14=Tua Ausência-Tibalgi and Miltinho
TTITLE15=Eu Te Amo E Tu Me Desprezas-Tibalgi and Miltinho
TTITLE16=Dia Mais Triste Da Vida-Tibalgi and Miltinho
TTITLE17=Teu Adeus-Tibalgi and Miltinho
TTITLE18=A Pombinha Branca Voltou-Tibalgi and Miltinho
TTITLE19=Que Seria-Tibalgi and Miltinho
EXTD=YEAR: 1965 ID3G: 2
EXTT0=
EXTT1=
EXTT2=
EXTT3=
EXTT4=
EXTT5=
EXTT6=
EXTT7=
EXTT8=
EXTT9=
EXTT10=
EXTT11=
EXTT12=
EXTT13=
EXTT14=
EXTT15=
EXTT16=
EXTT17=
EXTT18=
EXTT19=
PLAYORDER=
